<svg width="13" height="13" viewBox="0 0 13 13" fill="none" xmlns="http://www.w3.org/2000/svg">
<path d="M7.90994 6.50019L12.2099 2.21019C12.3982 2.02188 12.504 1.76649 12.504 1.50019C12.504 1.23388 12.3982 0.978489 12.2099 0.790185C12.0216 0.601882 11.7662 0.496094 11.4999 0.496094C11.2336 0.496094 10.9782 0.601882 10.7899 0.790185L6.49994 5.09019L2.20994 0.790185C2.02164 0.601882 1.76624 0.496094 1.49994 0.496094C1.23364 0.496094 0.978243 0.601882 0.789939 0.790185C0.601635 0.978489 0.495847 1.23388 0.495847 1.50019C0.495847 1.76649 0.601635 2.02188 0.789939 2.21019L5.08994 6.50019L0.789939 10.7902C0.696211 10.8831 0.621816 10.9937 0.571048 11.1156C0.520279 11.2375 0.494141 11.3682 0.494141 11.5002C0.494141 11.6322 0.520279 11.7629 0.571048 11.8848C0.621816 12.0066 0.696211 12.1172 0.789939 12.2102C0.882902 12.3039 0.993503 12.3783 1.11536 12.4291C1.23722 12.4798 1.36793 12.506 1.49994 12.506C1.63195 12.506 1.76266 12.4798 1.88452 12.4291C2.00638 12.3783 2.11698 12.3039 2.20994 12.2102L6.49994 7.91019L10.7899 12.2102C10.8829 12.3039 10.9935 12.3783 11.1154 12.4291C11.2372 12.4798 11.3679 12.506 11.4999 12.506C11.632 12.506 11.7627 12.4798 11.8845 12.4291C12.0064 12.3783 12.117 12.3039 12.2099 12.2102C12.3037 12.1172 12.3781 12.0066 12.4288 11.8848C12.4796 11.7629 12.5057 11.6322 12.5057 11.5002C12.5057 11.3682 12.4796 11.2375 12.4288 11.1156C12.3781 10.9937 12.3037 10.8831 12.2099 10.7902L7.90994 6.50019Z" fill="#0079C5"/>
</svg>
