<svg width="32" height="41" viewBox="0 0 32 41" fill="none" xmlns="http://www.w3.org/2000/svg">
<g clip-path="url(#clip0_248_2007)">
<path d="M1.00002 16.5375L1.00002 16.5372C1.00462 12.6359 2.55647 8.89561 5.31516 6.13692C8.07357 3.37851 11.8134 1.82669 15.7143 1.82178C19.6152 1.82669 23.355 3.37851 26.1134 6.13692C28.8721 8.89561 30.424 12.6359 30.4286 16.5372L30.4286 16.5375C30.4332 19.7217 29.3931 22.8195 27.4678 25.3557L27.3679 25.4873L27.3671 25.4897L27.247 25.6464C27.1896 25.721 27.131 25.7972 27.0832 25.8589L27.0227 25.9365C27.0152 25.946 27.0098 25.9528 27.0062 25.9574C27.0039 25.9603 27.0023 25.9623 27.0013 25.9635C27.0001 25.965 26.9999 25.9653 27.0006 25.9645L15.7143 39.2755L4.42703 25.9636L4.42705 25.9636L4.42262 25.9585C4.42321 25.9592 4.42207 25.9577 4.41904 25.9539C4.4106 25.9433 4.38747 25.9142 4.3464 25.8614C4.29847 25.7997 4.23995 25.7237 4.18254 25.6487C4.12534 25.5741 4.07017 25.5018 4.02924 25.4481L3.98025 25.3837L3.96673 25.3659L3.96323 25.3613L3.96235 25.3602L3.96222 25.36C2.03596 22.8226 0.995347 19.7233 1.00002 16.5375Z" stroke="#E7E04D" stroke-width="2"/>
<path d="M15.7143 20.3411L20.8572 23.6139L20 17.7939L24.2857 13.8611L18.4457 13.1382L15.7143 7.89966L13.1429 13.1368L7.14288 13.8611L11.4286 17.7939L10.5715 23.6139L15.7143 20.3411Z" fill="#E7E04D"/>
</g>
<defs>
<clipPath id="clip0_248_2007">
<rect width="32" height="40" fill="white" transform="translate(0 0.821777)"/>
</clipPath>
</defs>
</svg>
