<svg width="19" height="18" viewBox="0 0 19 18" fill="none" xmlns="http://www.w3.org/2000/svg">
<path d="M3.5 7.5V13.5H15.5V7.5L9.5 9.75L3.5 7.5ZM3.5 4.5V6L9.5 8.25L15.5 6V4.5H3.5ZM3.5 3H15.5C15.8978 3 16.2794 3.15804 16.5607 3.43934C16.842 3.72064 17 4.10218 17 4.5V13.5C17 13.8978 16.842 14.2794 16.5607 14.5607C16.2794 14.842 15.8978 15 15.5 15H3.5C3.10218 15 2.72064 14.842 2.43934 14.5607C2.15804 14.2794 2 13.8978 2 13.5V4.5C2 4.10218 2.15804 3.72064 2.43934 3.43934C2.72064 3.15804 3.10218 3 3.5 3Z"/>
</svg>
