<svg width="41" height="41" viewBox="0 0 41 41" fill="none" xmlns="http://www.w3.org/2000/svg">
<g clip-path="url(#clip0_248_1999)">
<path d="M20.2084 38.9051C10.0598 38.9051 1.83337 30.6786 1.83337 20.5301C1.83337 10.3816 10.0598 2.15511 20.2084 2.15511C30.3569 2.15511 38.5834 10.3816 38.5834 20.5301C38.5834 30.6786 30.3569 38.9051 20.2084 38.9051Z" stroke="#E7E04D" stroke-width="2"/>
<path fill-rule="evenodd" clip-rule="evenodd" d="M21.1384 12.4061L21.1384 12.4061C20.8129 12.3828 20.1367 12.3305 20.1754 11.6078C20.1929 11.294 20.3285 10.7708 21.0434 10.7708C21.1211 10.7715 21.1986 10.7754 21.2759 10.7825L21.2829 10.7829C21.3385 10.7866 21.392 10.7902 21.4348 10.7902C21.4523 10.7902 21.4698 10.7889 21.4871 10.7863L21.5414 10.7844C26.0325 10.9394 29.923 15.1476 29.8687 19.788C29.8668 19.8488 29.8705 19.9189 29.8743 19.9911L29.8746 19.9953C29.8881 20.3053 29.9036 20.687 29.6653 20.9446C29.5917 21.0202 29.5028 21.0792 29.4046 21.1177C29.3063 21.1561 29.201 21.1731 29.0957 21.1675H29.0724C28.3056 21.152 28.2936 20.4166 28.2878 20.0618L28.2877 20.0611C28.2874 20.0456 28.2872 20.0303 28.2869 20.0152C28.2856 19.9321 28.2843 19.8555 28.2761 19.7899C27.7201 15.2523 25.7128 13.121 21.3534 12.4274C21.2934 12.4177 21.2159 12.4119 21.1384 12.4061ZM27.7879 25.43C27.8793 25.5054 27.9716 25.5797 28.0649 25.6528V25.6547L28.0651 25.6548C28.7664 26.207 29.6401 26.8948 29.1616 28.2897C28.6152 29.8823 26.8385 31.2773 25.3582 31.2773H25.3331C25.3068 31.2769 25.2808 31.273 25.2555 31.2657L25.0715 31.2192L25.0565 31.2157C24.8409 31.1657 24.5497 31.0982 24.2732 30.9751C21.1267 29.5762 18.4104 27.7162 16.2016 25.4435C13.9425 23.1224 12.1542 20.3091 10.8812 17.0813C10.4395 15.9653 10.4201 14.8938 10.827 13.9793C11.2474 13.0358 12.0902 12.3189 13.2624 11.912C13.6989 11.7501 14.1792 11.7515 14.6148 11.9159C15.6359 12.3034 18.0597 15.7134 18.1178 16.8468C18.1701 17.8446 17.4261 18.3658 17.027 18.6448C16.3217 19.1389 16.1939 19.7434 16.593 20.6734C17.4203 22.5915 18.8676 24.0446 20.8923 24.994C21.1048 25.1017 21.3382 25.1618 21.5762 25.1703C21.9172 25.1703 22.1962 24.996 22.4249 24.6395C22.9422 23.8315 23.568 23.4208 24.2849 23.4208C24.8177 23.4208 25.3815 23.6436 26.0092 24.097C26.1112 24.1708 26.2132 24.2444 26.3154 24.3178C26.3361 24.3328 26.3568 24.3477 26.3775 24.3627C26.8466 24.7014 27.3314 25.0515 27.7879 25.43ZM20.8264 16.6666C21.0124 16.1125 21.5414 16.099 21.7932 16.0931C22.4655 16.0757 23.2037 16.438 23.816 17.0813C24.4263 17.7206 24.7847 18.5228 24.777 19.2319C24.7983 19.91 24.56 20.284 24.0659 20.346C24.035 20.3492 24.004 20.3505 23.9729 20.3498C23.5622 20.3498 23.2425 20.0088 23.194 19.5167C23.0933 18.4666 22.5818 17.8989 21.5898 17.7342C21.3166 17.6896 21.0144 17.6063 20.8574 17.3351C20.7509 17.151 20.7412 16.9263 20.8264 16.6666ZM21.9521 13.4679C24.9068 13.8341 27.2918 16.4846 27.2686 19.3754L27.2667 19.3773C27.2662 19.3903 27.2649 19.4033 27.2628 19.4161C27.2579 19.4877 27.2579 19.5595 27.2628 19.6311L27.2628 19.6326C27.2725 19.9297 27.2927 20.5458 26.637 20.6483C26.5711 20.6599 26.5091 20.6638 26.451 20.6638C25.7457 20.6638 25.705 19.9876 25.6857 19.6641C25.6818 19.5769 25.6779 19.4955 25.6663 19.4277C25.2303 16.7094 24.3352 15.7464 21.6789 15.1361C21.6229 15.1209 21.5551 15.1115 21.4831 15.1017C21.4729 15.1003 21.4626 15.0988 21.4522 15.0974L21.4369 15.0951C21.1567 15.0529 20.8131 15.0013 20.6152 14.7254C20.5542 14.6323 20.5126 14.5279 20.4926 14.4184C20.4726 14.309 20.4748 14.1966 20.499 14.0879C20.5416 13.8264 20.7024 13.3885 21.3088 13.3885C21.4598 13.3926 21.6102 13.4095 21.7583 13.4389L21.9521 13.4679Z" fill="#E7E04D"/>
</g>
<defs>
<clipPath id="clip0_248_1999">
<rect width="40" height="40" fill="white" transform="translate(0.5 0.821777)"/>
</clipPath>
</defs>
</svg>
