<svg width="40" height="41" viewBox="0 0 40 41" fill="none" xmlns="http://www.w3.org/2000/svg">
<g clip-path="url(#clip0_248_1993)">
<path d="M1.625 20.8218C1.625 10.6715 9.84858 2.44678 20 2.44678C30.1502 2.44678 38.375 10.6716 38.375 20.8218C38.375 30.972 30.1514 39.1968 20 39.1968C9.84978 39.1968 1.625 30.972 1.625 20.8218Z" stroke="#E7E04D" stroke-width="2"/>
<path d="M26.3363 28.7056L29.5163 13.7206L29.515 13.7193C29.7963 12.4068 29.0388 11.8831 28.1713 12.1956L9.49129 19.3993C8.21004 19.8993 8.23379 20.6106 9.27254 20.9381L14.0538 22.4306L25.1475 15.4468C25.6638 15.1031 26.1413 15.2981 25.75 15.6418L16.7738 23.7518L16.43 28.6818C16.93 28.6818 17.1488 28.4631 17.4063 28.2056L19.7425 25.9556L24.5863 29.5256C25.4688 30.0256 26.1013 29.7681 26.3363 28.7056Z" fill="#E7E04D"/>
</g>
<defs>
<clipPath id="clip0_248_1993">
<rect width="40" height="40" fill="white" transform="translate(0 0.821777)"/>
</clipPath>
</defs>
</svg>
